<?xml version="1.0" encoding="UTF-8" standalone="no"?>
<!DOCTYPE svg PUBLIC "-//W3C//DTD SVG 1.1//EN" "http://www.w3.org/Graphics/SVG/1.1/DTD/svg11.dtd">
<!-- Generated by Microsoft Visio, SVG Export live-analysis-workflow.svg Page-1 -->
<svg xmlns="http://www.w3.org/2000/svg" xmlns:xlink="http://www.w3.org/1999/xlink" xmlns:ev="http://www.w3.org/2001/xml-events"
		xmlns:v="http://schemas.microsoft.com/visio/2003/SVGExtensions/" width="8.5in" height="11in" viewBox="0 0 612 792"
		xml:space="preserve" color-interpolation-filters="sRGB" class="st33">
	<v:documentProperties v:langID="1033" v:viewMarkup="false">
		<v:userDefs>
			<v:ud v:nameU="msvNoAutoConnect" v:val="VT0(1):26"/>
		</v:userDefs>
	</v:documentProperties>

	<style type="text/css">
	<![CDATA[
		.st1 {fill:#0078d4;stroke:none;stroke-linecap:round;stroke-linejoin:round;stroke-width:0.75}
		.st2 {fill:#0078d4;stroke:#bfbfbf;stroke-linecap:round;stroke-linejoin:round;stroke-width:0.75}
		.st3 {fill:#f2f2f2;stroke:#bfbfbf;stroke-linecap:round;stroke-linejoin:round;stroke-width:0.75}
		.st4 {fill:none;stroke:none;stroke-linecap:round;stroke-linejoin:round;stroke-width:0.75}
		.st5 {fill:#000000;font-family:Segoe UI Light;font-size:0.75em;font-weight:bold}
		.st6 {font-size:1em;font-weight:normal}
		.st7 {fill:#000000;font-family:Segoe UI;font-size:1.16666em;font-weight:bold}
		.st8 {fill:url(#grad0-41);stroke:none;stroke-linecap:butt;stroke-width:0.75}
		.st9 {fill:url(#grad0-45);stroke:none;stroke-linecap:butt;stroke-width:0.75}
		.st10 {fill:url(#grad0-49);stroke:none;stroke-linecap:butt;stroke-width:0.75}
		.st11 {fill:url(#grad0-57);stroke:none;stroke-linecap:butt;stroke-width:0.75}
		.st12 {fill:#0078d4;stroke:none;stroke-linecap:butt;stroke-width:0.75}
		.st13 {fill:url(#grad0-63);stroke:none;stroke-linecap:butt;stroke-width:0.75}
		.st14 {fill:url(#grad0-67);stroke:none;stroke-linecap:butt;stroke-width:0.75}
		.st15 {marker-end:url(#mrkr5-117);stroke:#505050;stroke-linecap:round;stroke-linejoin:round;stroke-width:1}
		.st16 {fill:#505050;fill-opacity:1;stroke:#505050;stroke-opacity:1;stroke-width:0.28409090909091}
		.st17 {marker-end:url(#mrkr5-193);stroke:#000000;stroke-linecap:round;stroke-linejoin:round;stroke-width:1}
		.st18 {fill:#000000;fill-opacity:1;stroke:#000000;stroke-opacity:1;stroke-width:0.28409090909091}
		.st19 {fill:#ffffff;stroke:none;stroke-linecap:round;stroke-linejoin:round;stroke-width:0.75}
		.st20 {fill:#ffffff;stroke:#ffffff;stroke-linecap:butt;stroke-width:1.5}
		.st21 {fill:#7f7f7f;stroke:none;stroke-linecap:butt;stroke-width:0.75}
		.st22 {fill:#999999;stroke:#929292;stroke-linecap:round;stroke-linejoin:round;stroke-width:0.25}
		.st23 {fill:url(#grad0-225);stroke:none;stroke-linecap:round;stroke-linejoin:round;stroke-width:0.75}
		.st24 {fill:url(#grad0-230);stroke:#929292;stroke-linecap:round;stroke-linejoin:round;stroke-width:0.25}
		.st25 {fill:url(#grad0-234);stroke:none;stroke-linecap:round;stroke-linejoin:round;stroke-width:0.5}
		.st26 {stroke:#585858;stroke-linecap:round;stroke-linejoin:round;stroke-width:0.5}
		.st27 {fill:#606771;stroke:#606771;stroke-linecap:round;stroke-linejoin:round;stroke-width:0.25}
		.st28 {fill:#ffffff;stroke:#000000;stroke-linecap:round;stroke-linejoin:round;stroke-width:0.75}
		.st29 {fill:#000000}
		.st30 {fill:url(#grad0-295);stroke:none;stroke-linecap:butt;stroke-width:0.75}
		.st31 {fill:url(#grad0-299);stroke:none;stroke-linecap:butt;stroke-width:0.75}
		.st32 {fill:#c3f1ff;stroke:none;stroke-linecap:butt;stroke-width:0.75}
		.st33 {fill:none;fill-rule:evenodd;font-size:12px;overflow:visible;stroke-linecap:square;stroke-miterlimit:3}
	]]>
	</style>

	<defs id="Patterns_And_Gradients">
		<linearGradient id="grad0-41" x1="0" y1="0" x2="1" y2="0" gradientTransform="rotate(-90 0.5 0.5)">
			<stop offset="0" stop-color="#0078d4" stop-opacity="1"/>
			<stop offset="0.815" stop-color="#5ea0ef" stop-opacity="1"/>
		</linearGradient>
		<linearGradient id="grad0-45" x1="0" y1="0" x2="1" y2="0" gradientTransform="rotate(90 0.5 0.5)">
			<stop offset="0" stop-color="#9cebff" stop-opacity="1"/>
			<stop offset="1" stop-color="#50e6ff" stop-opacity="1"/>
		</linearGradient>
		<linearGradient id="grad0-49" x1="0" y1="0" x2="1" y2="0" gradientTransform="rotate(-90 0.5 0.5)">
			<stop offset="0" stop-color="#9cebff" stop-opacity="1"/>
			<stop offset="1" stop-color="#50e6ff" stop-opacity="1"/>
		</linearGradient>
		<linearGradient id="grad0-57" x1="0" y1="0" x2="1" y2="0" gradientTransform="rotate(116.59303776718 0.5 0.5)">
			<stop offset="0" stop-color="#114a8b" stop-opacity="1"/>
			<stop offset="1" stop-color="#0669bc" stop-opacity="1"/>
		</linearGradient>
		<linearGradient id="grad0-63" x1="0" y1="0" x2="1" y2="0" gradientTransform="rotate(162.39037065491 0.5 0.5)">
			<stop offset="0" stop-color="#000000" stop-opacity="1"/>
			<stop offset="0.07" stop-color="#000000" stop-opacity="1"/>
			<stop offset="0.32" stop-color="#000000" stop-opacity="1"/>
			<stop offset="0.625" stop-color="#000000" stop-opacity="1"/>
			<stop offset="1" stop-color="#000000" stop-opacity="1"/>
		</linearGradient>
		<linearGradient id="grad0-67" x1="0" y1="0" x2="1" y2="0" gradientTransform="rotate(62.258952409666 0.5 0.5)">
			<stop offset="0" stop-color="#3ccbf4" stop-opacity="1"/>
			<stop offset="1" stop-color="#2892df" stop-opacity="1"/>
		</linearGradient>
		<linearGradient id="grad0-225" x1="0" y1="0" x2="1" y2="0" gradientTransform="rotate(90 0.5 0.5)">
			<stop offset="0" stop-color="#e8e8e8" stop-opacity="1"/>
			<stop offset="1" stop-color="#e5e5e5" stop-opacity="1"/>
		</linearGradient>
		<linearGradient id="grad0-230" x1="0" y1="0" x2="1" y2="0" gradientTransform="rotate(270 0.5 0.5)">
			<stop offset="0" stop-color="#e5e5e5" stop-opacity="1"/>
			<stop offset="1" stop-color="#f4f4f4" stop-opacity="1"/>
		</linearGradient>
		<linearGradient id="grad0-234" x1="0" y1="0" x2="1" y2="0" gradientTransform="rotate(270 0.5 0.5)">
			<stop offset="0" stop-color="#999999" stop-opacity="1"/>
			<stop offset="1" stop-color="#e5e5e5" stop-opacity="1"/>
		</linearGradient>
		<linearGradient id="grad0-295" x1="0" y1="0" x2="1" y2="0" gradientTransform="rotate(131.73018430583 0.5 0.5)">
			<stop offset="0" stop-color="#83b9f9" stop-opacity="1"/>
			<stop offset="0.09" stop-color="#79b4f6" stop-opacity="1"/>
			<stop offset="0.245" stop-color="#5ea7ef" stop-opacity="1"/>
			<stop offset="0.44" stop-color="#3391e2" stop-opacity="1"/>
			<stop offset="0.64" stop-color="#0078d4" stop-opacity="1"/>
		</linearGradient>
		<linearGradient id="grad0-299" x1="0" y1="0" x2="1" y2="0" gradientTransform="rotate(90.656199454629 0.5 0.5)">
			<stop offset="0.175" stop-color="#83b9f9" stop-opacity="1"/>
			<stop offset="0.195" stop-color="#7eb7f8" stop-opacity="1"/>
			<stop offset="0.38" stop-color="#51a0eb" stop-opacity="1"/>
			<stop offset="0.56" stop-color="#2e8fe1" stop-opacity="1"/>
			<stop offset="0.725" stop-color="#1582da" stop-opacity="1"/>
			<stop offset="0.88" stop-color="#057bd6" stop-opacity="1"/>
			<stop offset="1" stop-color="#0078d4" stop-opacity="1"/>
		</linearGradient>
	</defs>
	<defs id="Markers">
		<g id="lend5">
			<path d="M 2 1 L 0 0 L 1.98117 -0.993387 C 1.67173 -0.364515 1.67301 0.372641 1.98465 1.00043 " style="stroke:none"/>
		</g>
		<marker id="mrkr5-117" class="st16" v:arrowType="5" v:arrowSize="2" v:setback="6.16" refX="-6.16" orient="auto"
				markerUnits="strokeWidth" overflow="visible">
			<use xlink:href="#lend5" transform="scale(-3.52,-3.52) "/>
		</marker>
		<marker id="mrkr5-193" class="st18" v:arrowType="5" v:arrowSize="2" v:setback="6.16" refX="-6.16" orient="auto"
				markerUnits="strokeWidth" overflow="visible">
			<use xlink:href="#lend5" transform="scale(-3.52,-3.52) "/>
		</marker>
	</defs>
	<g v:mID="0" v:index="1" v:groupContext="foregroundPage">
		<title>Page-1</title>
		<v:pageProperties v:drawingScale="1" v:pageScale="1" v:drawingUnits="19" v:shadowOffsetX="9" v:shadowOffsetY="-9"/>
		<v:layer v:name="Web and Media Icons" v:index="0"/>
		<v:layer v:name="Flowchart" v:index="1"/>
		<v:layer v:name="Connector" v:index="2"/>
		<g id="shape207-1" v:mID="207" v:groupContext="shape" transform="translate(49.5,-21.8331)">
			<title>Sheet.207</title>
			<rect x="0" y="629.572" width="323.222" height="162.428" rx="4.5" ry="4.5" class="st1"/>
		</g>
		<g id="shape201-3" v:mID="201" v:groupContext="shape" transform="translate(49.5,-193.417)">
			<title>Sheet.201</title>
			<rect x="0" y="614.322" width="323.222" height="177.678" rx="4.5" ry="4.5" class="st2"/>
		</g>
		<g id="shape199-5" v:mID="199" v:groupContext="shape" transform="translate(49.5,-380.25)">
			<title>Sheet.199</title>
			<rect x="0" y="502.634" width="323.222" height="289.366" rx="4.5" ry="4.5" class="st2"/>
		</g>
		<g id="shape1-7" v:mID="1" v:groupContext="shape" transform="translate(116.942,-562.5)">
			<title>Sheet.1</title>
			<rect x="0" y="695.25" width="180" height="96.75" rx="4.5" ry="4.5" class="st3"/>
		</g>
		<g id="group2-9" transform="translate(210.596,-426.279)" v:mID="2" v:groupContext="group">
			<title>Sheet.2</title>
			<g id="group3-10" v:mID="3" v:groupContext="group">
				<title>Sheet.3</title>
			</g>
		</g>
		<g id="shape4-11" v:mID="4" v:groupContext="shape" transform="translate(116.942,-639.973)">
			<title>Art caption, FL.1010</title>
			<desc>Azure prerequisites: - Azure AI Video Indexer account - Appro...</desc>
			<v:textBlock v:margins="rect(4,4,4,4)" v:verticalAlign="0"/>
			<v:textRect cx="90" cy="782.361" width="180.01" height="19.2771"/>
			<rect x="0" y="772.723" width="180" height="19.2771" class="st4"/>
			<text x="21.29" y="784.82" class="st5" v:langID="1033"><v:paragraph/><v:tabList/>Azure prerequisites:<v:lf/><tspan
						x="4" dy="1.2em" class="st6">-</tspan><tspan class="st6"> </tspan><tspan class="st6">Azure AI Video Indexer account<v:lf/></tspan><tspan
						x="4" dy="1.2em" class="st6">-</tspan><tspan class="st6"> </tspan><tspan class="st6">Approved Azure subscription<v:lf/></tspan><tspan
						x="4" dy="1.2em" class="st6">-</tspan><tspan class="st6"> </tspan><tspan class="st6">Connected Azure Arc enabled Kubernetes </tspan><tspan
						x="4" dy="1.2em" class="st6">cluster<v:lf/></tspan><tspan x="4" dy="1.2em" class="st6">-</tspan><tspan
						class="st6"> </tspan><tspan class="st6">ONVIF cameras with RTSP stream<v:lf/></tspan><tspan x="4"
						dy="1.2em" class="st6">-</tspan><tspan class="st6"> </tspan><tspan class="st6">Optional Azure IoT for operations </tspan><tspan
						x="4" dy="1.2em" class="st6">extenstion</tspan></text>		</g>
		<g id="shape98-31" v:mID="98" v:groupContext="shape" transform="translate(52.0142,-699.043)">
			<title>Art caption, FL.1213</title>
			<desc>Live video analysis with Azure AI Video Indexer enabled by Arc</desc>
			<v:textBlock v:margins="rect(4,4,4,4)" v:verticalAlign="0"/>
			<v:textRect cx="235.28" cy="782.361" width="470.57" height="19.2771"/>
			<rect x="0" y="772.723" width="470.561" height="19.2771" class="st4"/>
			<text x="4" y="789.32" class="st7" v:langID="1033"><v:paragraph/><v:tabList/>Live video analysis with Azure AI Video Indexer enabled by Arc</text>		</g>
		<g id="shape140-34" v:mID="140" v:groupContext="shape" transform="translate(116.942,-473.61)">
			<title>Sheet.140</title>
			<rect x="0" y="722.387" width="180" height="69.6128" rx="4.5" ry="4.5" class="st3"/>
		</g>
		<g id="group114-36" transform="translate(125.015,-527.156)" v:mID="114" v:groupContext="group">
			<title>Sheet.114</title>
			<g id="group115-37" v:mID="115" v:groupContext="group">
				<title>Sheet.115</title>
				<g id="shape116-38" v:mID="116" v:groupContext="shape">
					<title>Sheet.116</title>
					<path d="M0 779.47 a0.375 0.375 0 0 1 0.561 -0.3255 L11.24 785.25 a0.375 0.375 0 0 1 -1.77636E-15 0.651 L0.56
								 792 a0.375 0.375 0 0 1 -0.561 -0.3255 L0 779.47 ZM2.11 782.46 L2.11 788.69 L7.56 785.57 L2.11 782.46
								 Z" class="st8"/>
				</g>
				<g id="shape117-42" v:mID="117" v:groupContext="shape" transform="translate(7.49401E-16,-4.929)">
					<title>Sheet.117</title>
					<rect x="0" y="789" width="2.109" height="3" class="st9"/>
				</g>
				<g id="shape118-46" v:mID="118" v:groupContext="shape" transform="translate(3.52875,-2.29575)">
					<title>Sheet.118</title>
					<path d="M3.61 790.54 L1.05 792 L0 790.17 L2.56 788.7 L3.61 790.54 Z" class="st10"/>
				</g>
				<g id="shape119-50" v:mID="119" v:groupContext="shape" transform="translate(3.53175,-7.266)">
					<title>Sheet.119</title>
					<path d="M1.05 788.7 L3.61 790.17 L2.56 792 L0 790.54 L1.05 788.7 Z" class="st10"/>
				</g>
			</g>
		</g>
		<g id="group120-53" transform="translate(121.442,-644.089)" v:mID="120" v:groupContext="group">
			<title>Sheet.120</title>
			<g id="shape121-54" v:mID="121" v:groupContext="shape">
				<title>Sheet.121</title>
				<path d="M3.86 780.14 C3.95 779.9 4.18 779.73 4.44 779.73 L8.3 779.73 L4.3 791.58 C4.21 791.83 3.98 792 3.72 792
							 L0.72 792 C0.3 792 0 791.59 0.13 791.19 L3.86 780.14 Z" class="st11"/>
			</g>
			<g id="shape122-58" v:mID="122" v:groupContext="shape" transform="translate(3.57083,-7.5E-05)">
				<title>Sheet.122</title>
				<path d="M6.45 787.7 L0.38 787.7 C0.12 787.7 0 788.02 0.19 788.19 L4.09 791.83 C4.2 791.94 4.35 792 4.51 792 L7.95
							 792 L6.45 787.7 Z" class="st12"/>
			</g>
			<g id="shape123-60" v:mID="123" v:groupContext="shape">
				<title>Sheet.123</title>
				<path d="M4.44 779.73 C4.18 779.73 3.95 779.9 3.86 780.14 L0.13 791.19 C0 791.59 0.3 792 0.72 792 L3.72 792 C3.98
							 792 4.21 791.83 4.3 791.58 L5.04 789.39 L7.66 791.83 C7.77 791.94 7.92 792 8.08 792 L11.52 792 L10.02
							 787.7 L5.61 787.7 L8.3 779.73 L4.44 779.73 Z" class="st13"/>
			</g>
			<g id="shape124-64" v:mID="124" v:groupContext="shape" transform="translate(4.46312,-7.5E-05)">
				<title>Sheet.124</title>
				<path d="M4.9 780.14 C4.81 779.9 4.58 779.73 4.32 779.73 L0 779.73 L0.02 779.73 C0.28 779.73 0.52 779.9 0.6 780.14
							 L4.33 791.19 C4.46 791.59 4.17 792 3.75 792 L3.68 792 L8.04 792 C8.46 792 8.76 791.59 8.62 791.19 L4.9
							 780.14 Z" class="st14"/>
			</g>
		</g>
		<g id="shape127-68" v:mID="127" v:groupContext="shape" transform="translate(116.942,-390.478)">
			<title>Sheet.127</title>
			<rect x="0" y="722.387" width="137.25" height="69.6128" rx="4.5" ry="4.5" class="st3"/>
		</g>
		<g id="shape125-70" v:mID="125" v:groupContext="shape" transform="translate(120.319,-434.064)">
			<title>Art caption, FL.125</title>
			<desc>Connect cameras - Use vi.clish script - Choose connection typ...</desc>
			<v:textBlock v:margins="rect(4,4,4,4)" v:verticalAlign="0"/>
			<v:textRect cx="90" cy="782.361" width="180.01" height="19.2771"/>
			<rect x="0" y="772.723" width="180" height="19.2771" class="st4"/>
			<text x="21.29" y="784.82" class="st5" v:langID="1033"><v:paragraph/><v:tabList/>Connect cameras<v:lf/><tspan x="4"
						dy="1.2em" class="st6">-</tspan><tspan class="st6"> </tspan><tspan class="st6">Use vi.clish script<v:lf/></tspan><tspan
						x="4" dy="1.2em" class="st6">-</tspan><tspan class="st6"> </tspan><tspan class="st6">Choose connection type:<v:lf/></tspan><tspan
						x="4" dy="1.2em" class="st6">  </tspan><tspan class="st6">-</tspan><tspan class="st6"> </tspan><tspan
						class="st6">With AIO<v:lf/></tspan><tspan x="4" dy="1.2em" class="st6">  </tspan><tspan class="st6">-</tspan><tspan
						class="st6"> </tspan><tspan class="st6">Without AIO</tspan></text>		</g>
		<g id="shape126-87" v:mID="126" v:groupContext="shape" transform="translate(116.942,-523.946)">
			<title>Art caption, FL.126</title>
			<desc>Install VI Live extension - With Azure portal/CLI/Bicep - Spe...</desc>
			<v:textBlock v:margins="rect(4,4,4,4)" v:verticalAlign="0"/>
			<v:textRect cx="90" cy="782.361" width="180.01" height="19.2771"/>
			<rect x="0" y="772.723" width="180" height="19.2771" class="st4"/>
			<text x="21.29" y="784.82" class="st5" v:langID="1033"><v:paragraph/><v:tabList/>Install VI Live extension<v:lf/><tspan
						x="4" dy="1.2em" class="st6">-</tspan><tspan class="st6"> </tspan><tspan class="st6">With Azure portal/CLI/Bicep<v:lf/></tspan><tspan
						x="4" dy="1.2em" class="st6">-</tspan><tspan class="st6"> </tspan><tspan class="st6">Specify account ID, endpoint, GPU settings, </tspan><tspan
						x="4" dy="1.2em" class="st6">and storage</tspan></text>		</g>
		<g id="shape133-97" v:mID="133" v:groupContext="shape" transform="translate(116.942,-204.584)">
			<title>Sheet.133</title>
			<rect x="0" y="722.387" width="137.25" height="69.6128" rx="4.5" ry="4.5" class="st3"/>
		</g>
		<g id="shape129-99" v:mID="129" v:groupContext="shape" transform="translate(116.55,-256.029)">
			<title>Art caption, FL.129</title>
			<desc>Apply presets - Apply a preset to a camera to start get insig...</desc>
			<v:textBlock v:margins="rect(4,4,4,4)" v:verticalAlign="0"/>
			<v:textRect cx="66.375" cy="782.361" width="132.76" height="19.2771"/>
			<rect x="0" y="772.723" width="132.75" height="19.2771" class="st4"/>
			<text x="23.76" y="784.82" class="st5" v:langID="1033"><v:paragraph/><v:tabList/>Apply presets<v:lf/><tspan x="4"
						dy="1.2em" class="st6">-</tspan><tspan class="st6"> </tspan><tspan class="st6">Apply a preset to a camera to </tspan><tspan
						x="4" dy="1.2em" class="st6">start get insights<v:newlineChar/><v:paragraph/></tspan><tspan x="4"
						dy="1.2em" class="st6">-</tspan><tspan class="st6"> </tspan><tspan class="st6">A camera can have only one </tspan><tspan
						x="4" dy="1.2em" class="st6">preset applied at a time</tspan></text>		</g>
		<g id="shape130-110" v:mID="130" v:groupContext="shape" transform="translate(71.8722,-97.1896)">
			<title>Sheet.130</title>
			<rect x="0" y="722.387" width="146.077" height="69.6128" rx="4.5" ry="4.5" class="st3"/>
		</g>
		<g id="shape131-112" v:mID="131" v:groupContext="shape" transform="translate(916.099,482.083) rotate(90)">
			<title>Arrow.131</title>
			<path d="M0 792 L7.48 792" class="st15"/>
		</g>
		<g id="shape132-118" v:mID="132" v:groupContext="shape" transform="translate(71.8722,-147.525)">
			<title>Art caption, FL.132</title>
			<desc>Live video stream analysis - Real time bounding boxes, object...</desc>
			<v:textBlock v:margins="rect(4,4,4,4)" v:verticalAlign="0"/>
			<v:textRect cx="64.125" cy="782.361" width="128.26" height="19.2771"/>
			<rect x="0" y="772.723" width="128.25" height="19.2771" class="st4"/>
			<text x="21.29" y="784.82" class="st5" v:langID="1033"><v:paragraph/><v:tabList/>Live video stream analysis<v:lf/><tspan
						x="4" dy="1.2em" class="st6">-</tspan><tspan class="st6"> </tspan><tspan class="st6">Real time bounding boxes, </tspan><tspan
						x="4" dy="1.2em" class="st6">object counts, insights timeline<v:lf/></tspan><tspan x="4" dy="1.2em"
						class="st6">-</tspan><tspan class="st6"> </tspan><tspan class="st6">Detected objects tracked by </tspan><tspan
						x="4" dy="1.2em" class="st6">non</tspan><tspan class="st6">-</tspan><tspan class="st6">biometric ID</tspan></text>		</g>
		<g id="shape135-131" v:mID="135" v:groupContext="shape" transform="translate(227.196,-64.9899)">
			<title>Sheet.135</title>
			<rect x="0" y="690.187" width="137.25" height="101.813" rx="4.5" ry="4.5" class="st3"/>
		</g>
		<g id="shape136-133" v:mID="136" v:groupContext="shape" transform="translate(227.196,-147.533)">
			<title>Art caption, FL.136</title>
			<desc>Recording and summarization - Optionally, save live stream an...</desc>
			<v:textBlock v:margins="rect(4,4,4,4)" v:verticalAlign="0"/>
			<v:textRect cx="70.875" cy="782.361" width="141.76" height="19.2771"/>
			<rect x="0" y="772.723" width="141.75" height="19.2771" class="st4"/>
			<text x="21.29" y="784.82" class="st5" v:langID="1033"><v:paragraph/><v:tabList/>Recording and summarization<v:lf/><tspan
						x="4" dy="1.2em" class="st6">-</tspan><tspan class="st6"> </tspan><tspan class="st6">Optionally, save live stream and </tspan><tspan
						x="4" dy="1.2em" class="st6">insights<v:lf/></tspan><tspan x="4" dy="1.2em" class="st6">-</tspan><tspan
						class="st6"> </tspan><tspan class="st6">Generate event summaries from </tspan><tspan x="4" dy="1.2em"
						class="st6">footage<v:lf/></tspan><tspan x="4" dy="1.2em" class="st6">  </tspan><tspan class="st6">-</tspan><tspan
						class="st6"> </tspan><tspan class="st6">Use camera description<v:lf/></tspan><tspan x="4" dy="1.2em"
						class="st6">  </tspan><tspan class="st6">-</tspan><tspan class="st6"> </tspan><tspan class="st6">Focus on prompt<v:lf/></tspan><tspan
						x="4" dy="1.2em" class="st6">-</tspan><tspan class="st6"> </tspan><tspan class="st6">Supports different tones and </tspan><tspan
						x="4" dy="1.2em" class="st6">length</tspan></text>		</g>
		<g id="shape142-156" v:mID="142" v:groupContext="shape" transform="translate(71.8704,-32.6331)">
			<title>Sheet.142</title>
			<rect x="0" y="730.602" width="146.102" height="61.3976" rx="4.5" ry="4.5" class="st3"/>
		</g>
		<g id="shape138-158" v:mID="138" v:groupContext="shape" transform="translate(71.8704,-75.6878)">
			<title>Art caption, FL.138</title>
			<desc>More features - Upload external video files for indexing - Us...</desc>
			<v:textBlock v:margins="rect(4,4,4,4)" v:verticalAlign="0"/>
			<v:textRect cx="73.0512" cy="783.499" width="146.11" height="17.0022"/>
			<rect x="0" y="774.998" width="146.102" height="17.0022" class="st4"/>
			<text x="21.29" y="787.1" class="st5" v:langID="1033"><v:paragraph/><v:tabList/>More features<v:lf/><tspan x="4"
						dy="1.2em" class="st6">-</tspan><tspan class="st6"> </tspan><tspan class="st6">Upload external video files for </tspan><tspan
						x="4" dy="1.2em" class="st6">indexing<v:lf/></tspan><tspan x="4" dy="1.2em" class="st6">-</tspan><tspan
						class="st6"> </tspan><tspan class="st6">Use API for camera/preset/insight </tspan><tspan x="4" dy="1.2em"
						class="st6">management</tspan></text>		</g>
		<g id="shape141-169" v:mID="141" v:groupContext="shape" transform="translate(116.942,-289.386)">
			<title>Sheet.141</title>
			<rect x="0" y="722.387" width="182.246" height="69.6128" rx="4.5" ry="4.5" class="st3"/>
		</g>
		<g id="shape139-171" v:mID="139" v:groupContext="shape" transform="translate(115.43,-339.722)">
			<title>Art caption, FL.139</title>
			<desc>Create presets - Define AI insights - Built-in (people; vehic...</desc>
			<v:textBlock v:margins="rect(4,4,4,4)" v:verticalAlign="0"/>
			<v:textRect cx="90" cy="782.361" width="180.01" height="19.2771"/>
			<rect x="0" y="772.723" width="180" height="19.2771" class="st4"/>
			<text x="23.76" y="784.82" class="st5" v:langID="1033"><v:paragraph/><v:tabList/>Create presets<v:lf/><tspan x="4"
						dy="1.2em" class="st6">-</tspan><tspan class="st6"> </tspan><tspan class="st6">Define AI insights<v:lf/></tspan><tspan
						x="4" dy="1.2em" class="st6">  </tspan><tspan class="st6">-</tspan><tspan class="st6"> </tspan><tspan
						class="st6">Built</tspan><tspan class="st6">-</tspan><tspan class="st6">in (people; vehicles)<v:lf/></tspan><tspan
						x="4" dy="1.2em" class="st6">  </tspan><tspan class="st6">-</tspan><tspan class="st6"> </tspan><tspan
						class="st6">Custom (open vocabulary with text/</tspan><tspan x="4" dy="1.2em" class="st6">images)</tspan></text>		</g>
		<g id="shape144-188" v:mID="144" v:groupContext="shape" transform="translate(989.942,319.193) rotate(90)">
			<title>Arrow.144</title>
			<path d="M0 792 L5.96 792" class="st17"/>
		</g>
		<g id="shape145-194" v:mID="145" v:groupContext="shape" transform="translate(989.942,230.318) rotate(90)">
			<title>Arrow.145</title>
			<path d="M0 792 L11.87 792" class="st17"/>
		</g>
		<g id="group152-199" transform="translate(75.523,-82.2982)" v:mID="152" v:groupContext="group">
			<title>gears (opaque)</title>
			<g id="shape153-200" v:mID="153" v:groupContext="shape" transform="translate(6.10414,-2.17786)">
				<title>Sheet.153</title>
				<ellipse cx="1.83707" cy="790.035" rx="1.83707" ry="1.96549" class="st19"/>
			</g>
			<g id="shape154-202" v:mID="154" v:groupContext="shape" transform="translate(1.76449,-6.81424)">
				<title>Sheet.154</title>
				<ellipse cx="0.948125" cy="790.986" rx="0.948125" ry="1.0144" class="st19"/>
			</g>
			<g id="group155-204" v:mID="155" v:groupContext="group">
				<title>gears.3109</title>
				<g id="group156-205" transform="translate(-2.94265E-13,-4.81452)" v:mID="156" v:groupContext="group">
					<title>Sheet.156</title>
					<g id="shape157-206" v:mID="157" v:groupContext="shape">
						<title>Sheet.157</title>
						<path d="M2.74 789.99 C2.25 789.99 1.86 789.56 1.86 789.04 C1.86 788.51 2.26 788.09 2.74 788.09 C3.21 788.09
									 3.6 788.51 3.6 789.04 C3.6 789.56 3.21 789.99 2.74 789.99 ZM4.43 786.69 L3.73 787.08 L3.3 786.89
									 L3.03 786.07 L2.41 786.07 L2.17 786.89 L1.74 787.08 L1.01 786.71 L0.57 787.19 L0.93 787.96 L0.75
									 788.42 L0 788.72 L0 789.39 L0.75 789.65 L0.93 790.12 L0.59 790.9 L1.03 791.38 L1.74 790.99 L2.16
									 791.19 L2.43 792 L3.06 792 L3.3 791.19 L3.72 790.99 L4.45 791.36 L4.89 790.88 L4.53 790.12 L4.71
									 789.65 L5.46 789.36 L5.46 788.68 L4.71 788.42 L4.53 787.96 L4.88 787.18 L4.43 786.69 Z"
								class="st20"/>
					</g>
				</g>
				<g id="group158-208" transform="translate(4.05174,0)" v:mID="158" v:groupContext="group">
					<title>Sheet.158</title>
					<g id="shape159-209" v:mID="159" v:groupContext="shape">
						<title>Sheet.159</title>
						<path d="M3.86 789.16 C3.18 789.16 2.63 788.55 2.63 787.82 C2.63 787.08 3.19 786.48 3.86 786.48 C4.54 786.48
									 5.08 787.08 5.08 787.82 C5.09 788.55 4.54 789.16 3.86 789.16 ZM6.26 784.51 L5.26 785.06 L4.65
									 784.79 L4.27 783.63 L3.4 783.63 L3.06 784.79 L2.45 785.06 L1.43 784.54 L0.81 785.21 L1.32 786.29
									 L1.06 786.94 L0 787.36 L0 788.31 L1.06 788.68 L1.32 789.35 L0.83 790.45 L1.46 791.13 L2.45 790.58
									 L3.05 790.85 L3.44 792 L4.31 792 L4.66 790.85 L5.26 790.58 L6.28 791.1 L6.9 790.43 L6.4 789.35
									 L6.65 788.68 L7.7 788.27 L7.7 787.32 L6.65 786.94 L6.4 786.29 L6.88 785.19 L6.26 784.51 Z"
								class="st20"/>
					</g>
				</g>
			</g>
			<g id="group160-211" v:mID="160" v:groupContext="group">
				<title>gears</title>
				<g id="group161-212" transform="translate(-2.94265E-13,-4.81452)" v:mID="161" v:groupContext="group">
					<title>Sheet.161</title>
					<g id="shape162-213" v:mID="162" v:groupContext="shape">
						<title>Sheet.162</title>
						<path d="M2.74 789.99 C2.25 789.99 1.86 789.56 1.86 789.04 C1.86 788.51 2.26 788.09 2.74 788.09 C3.21 788.09
									 3.6 788.51 3.6 789.04 C3.6 789.56 3.21 789.99 2.74 789.99 ZM4.43 786.69 L3.73 787.08 L3.3 786.89
									 L3.03 786.07 L2.41 786.07 L2.17 786.89 L1.74 787.08 L1.01 786.71 L0.57 787.19 L0.93 787.96 L0.75
									 788.42 L0 788.72 L0 789.39 L0.75 789.65 L0.93 790.12 L0.59 790.9 L1.03 791.38 L1.74 790.99 L2.16
									 791.19 L2.43 792 L3.06 792 L3.3 791.19 L3.72 790.99 L4.45 791.36 L4.89 790.88 L4.53 790.12 L4.71
									 789.65 L5.46 789.36 L5.46 788.68 L4.71 788.42 L4.53 787.96 L4.88 787.18 L4.43 786.69 Z"
								class="st21"/>
					</g>
				</g>
				<g id="group163-215" transform="translate(4.05174,0)" v:mID="163" v:groupContext="group">
					<title>Sheet.163</title>
					<g id="shape164-216" v:mID="164" v:groupContext="shape">
						<title>Sheet.164</title>
						<path d="M3.86 789.16 C3.18 789.16 2.63 788.55 2.63 787.82 C2.63 787.08 3.19 786.48 3.86 786.48 C4.54 786.48
									 5.08 787.08 5.08 787.82 C5.09 788.55 4.54 789.16 3.86 789.16 ZM6.26 784.51 L5.26 785.06 L4.65
									 784.79 L4.27 783.63 L3.4 783.63 L3.06 784.79 L2.45 785.06 L1.43 784.54 L0.81 785.21 L1.32 786.29
									 L1.06 786.94 L0 787.36 L0 788.31 L1.06 788.68 L1.32 789.35 L0.83 790.45 L1.46 791.13 L2.45 790.58
									 L3.05 790.85 L3.44 792 L4.31 792 L4.66 790.85 L5.26 790.58 L6.28 791.1 L6.9 790.43 L6.4 789.35
									 L6.65 788.68 L7.7 788.27 L7.7 787.32 L6.65 786.94 L6.4 786.29 L6.88 785.19 L6.26 784.51 Z"
								class="st21"/>
					</g>
				</g>
			</g>
		</g>
		<g id="group165-218" transform="translate(116.555,-349.357)" v:mID="165" v:groupContext="group">
			<v:custProps>
				<v:cp v:nameU="Ticks" v:lbl="Number of Ticks" v:prompt="" v:type="1" v:format="2;3;4;5;6;7;8;9;10;11;12;13;14;15"
						v:sortKey="" v:invis="false" v:ask="false" v:langID="1033" v:cal="0" v:val="VT4(5)"/>
			</v:custProps>
			<v:userDefs>
				<v:ud v:nameU="isVertical" v:prompt="" v:val="VT0(0):26"/>
				<v:ud v:nameU="TickLines" v:prompt="" v:val="VT0(0):26"/>
				<v:ud v:nameU="Disabled" v:prompt="" v:val="VT0(0):5"/>
				<v:ud v:nameU="Pixel" v:prompt="" v:val="VT0(0.01):0"/>
				<v:ud v:nameU="BaseColor" v:prompt="" v:val="VT5(#e5e5e5)"/>
				<v:ud v:nameU="FillBkgnd" v:prompt="" v:val="VT5(#e5e5e5)"/>
				<v:ud v:nameU="TickIntervals" v:prompt="" v:val="VT0(0.25):1"/>
				<v:ud v:nameU="visVersion" v:prompt="" v:val="VT0(15):26"/>
				<v:ud v:nameU="TickIntervals" v:prompt="" v:val="VT0(0.069100839120371):1"/>
			</v:userDefs>
			<title>Slider</title>
			<g id="group166-219" transform="translate(0,-2.24882)" v:mID="166" v:groupContext="group">
				<title>Sheet.166</title>
				<g id="shape167-220" v:mID="167" v:groupContext="shape">
					<title>Sheet.167</title>
					<rect x="0" y="791.522" width="19.901" height="0.477625" class="st22"/>
				</g>
				<g id="shape168-222" v:mID="168" v:groupContext="shape" transform="translate(0.129357,-0.0358219)">
					<title>Sheet.168</title>
					<rect x="0" y="791.737" width="19.8015" height="0.262694" class="st23"/>
				</g>
			</g>
			<g id="group169-226" transform="translate(7.25052,2.91237)" v:mID="169" v:groupContext="group">
				<v:userDefs>
					<v:ud v:nameU="Pixel" v:prompt="" v:val="VT0(0.01):0"/>
					<v:ud v:nameU="TickLines" v:prompt="" v:val="VT0(0):26"/>
					<v:ud v:nameU="Disabled" v:prompt="" v:val="VT0(0):5"/>
				</v:userDefs>
				<title>Sheet.169</title>
				<g id="shape170-227" v:mID="170" v:groupContext="shape">
					<title>Sheet.170</title>
					<v:userDefs>
						<v:ud v:nameU="isVertical" v:prompt="" v:val="VT0(0):26"/>
					</v:userDefs>
					<path d="M5.4 789.24 L5.4 781.2 L0 781.2 L0 789.24 L2.78 792 L5.4 789.24 Z" class="st24"/>
				</g>
				<g id="shape171-231" v:mID="171" v:groupContext="shape" transform="translate(0.675,-1.08)">
					<title>Sheet.171</title>
					<v:userDefs>
						<v:ud v:nameU="isVertical" v:prompt="" v:val="VT0(0):26"/>
					</v:userDefs>
					<path d="M4.05 789.79 L4.05 783.36 L0 783.36 L0 789.79 L2.09 792 L4.05 789.79 Z" class="st25"/>
				</g>
			</g>
			<g id="shape172-235" v:mID="172" v:groupContext="shape" transform="translate(0,-4.7265)">
				<title>Sheet.172</title>
				<v:userDefs>
					<v:ud v:nameU="Ticks" v:prompt="" v:val="VT0(5):26"/>
					<v:ud v:nameU="TickIntervals" v:prompt="" v:val="VT0(0.25):1"/>
					<v:ud v:nameU="TickIntervals" v:prompt="" v:val="VT0(0.069100839120371):1"/>
				</v:userDefs>
				<path d="M0 792 L0 791.75" class="st26"/>
				<path d="M4.98 792 L4.98 791.75" class="st26"/>
				<path d="M9.95 792 L9.95 791.75" class="st26"/>
				<path d="M14.93 792 L14.93 791.75" class="st26"/>
				<path d="M19.9 792 L19.9 791.75" class="st26"/>
			</g>
			<g id="shape173-242" v:mID="173" v:groupContext="shape">
				<title>Sheet.173</title>
				<v:userDefs>
					<v:ud v:nameU="Ticks" v:prompt="" v:val="VT0(5):26"/>
					<v:ud v:nameU="TickIntervals" v:prompt="" v:val="VT0(0.25):1"/>
					<v:ud v:nameU="TickIntervals" v:prompt="" v:val="VT0(0.069100839120371):1"/>
				</v:userDefs>
				<path d="M0 792 L0 791.75" class="st26"/>
				<path d="M4.98 792 L4.98 791.75" class="st26"/>
				<path d="M9.95 792 L9.95 791.75" class="st26"/>
				<path d="M14.93 792 L14.93 791.75" class="st26"/>
				<path d="M19.9 792 L19.9 791.75" class="st26"/>
			</g>
		</g>
		<g id="group174-249" transform="translate(121.819,-442.091)" v:mID="174" v:groupContext="group" v:layerMember="0">
			<v:userDefs>
				<v:ud v:nameU="visVersion" v:prompt="" v:val="VT0(17):26"/>
				<v:ud v:nameU="visAltText" v:prompt="" v:val="VT4(Camera)"/>
				<v:ud v:nameU="visAltDescription" v:prompt="" v:val="VT4(Camera Icon.)"/>
				<v:ud v:nameU="Font" v:prompt="" v:val="VT0(243):26"/>
			</v:userDefs>
			<title>Camera</title>
			<g id="shape175-250" v:mID="175" v:groupContext="shape" v:layerMember="0">
				<title>Sheet.175</title>
				<path d="M8.25 790.33 C6.19 790.33 4.54 788.67 4.54 786.58 C4.54 784.5 6.19 782.83 8.25 782.83 C10.31 782.83 11.96
							 784.5 11.96 786.58 C11.96 788.67 10.31 790.33 8.25 790.33 ZM4.12 783.67 L1.65 783.67 L1.65 782 L4.12
							 782 L4.12 783.67 ZM15.67 780.33 L11.55 780.33 L10.31 778.25 L6.19 778.25 L4.95 780.33 L0.82 780.33 C0.37
							 780.33 0 780.71 0 781.17 L0 791.17 C0 791.62 0.37 792 0.82 792 L15.67 792 C16.13 792 16.5 791.62 16.5
							 791.17 L16.5 781.17 C16.5 780.71 16.13 780.33 15.67 780.33 Z" class="st27"/>
			</g>
			<g id="shape176-252" v:mID="176" v:groupContext="shape" v:layerMember="0" transform="translate(5.3625,-2.5)">
				<title>Sheet.176</title>
				<path d="M2.89 787 C1.73 787 0.82 787.92 0.82 789.08 C0.82 790.25 1.73 791.17 2.89 791.17 C4.04 791.17 4.95 790.25
							 4.95 789.08 C4.95 787.92 4.04 787 2.89 787 ZM2.89 792 C1.28 792 0 790.71 0 789.08 C0 787.46 1.28 786.17
							 2.89 786.17 C4.5 786.17 5.77 787.46 5.77 789.08 C5.77 790.71 4.5 792 2.89 792 Z" class="st27"/>
			</g>
		</g>
		<g id="group177-254" transform="translate(117.883,-264.706)" v:mID="177" v:groupContext="group">
			<v:custProps>
				<v:cp v:nameU="Ticks" v:lbl="Number of Ticks" v:prompt="" v:type="1" v:format="2;3;4;5;6;7;8;9;10;11;12;13;14;15"
						v:sortKey="" v:invis="false" v:ask="false" v:langID="1033" v:cal="0" v:val="VT4(5)"/>
			</v:custProps>
			<v:userDefs>
				<v:ud v:nameU="isVertical" v:prompt="" v:val="VT0(0):26"/>
				<v:ud v:nameU="TickLines" v:prompt="" v:val="VT0(0):26"/>
				<v:ud v:nameU="Disabled" v:prompt="" v:val="VT0(0):5"/>
				<v:ud v:nameU="Pixel" v:prompt="" v:val="VT0(0.01):0"/>
				<v:ud v:nameU="BaseColor" v:prompt="" v:val="VT5(#e5e5e5)"/>
				<v:ud v:nameU="FillBkgnd" v:prompt="" v:val="VT5(#e5e5e5)"/>
				<v:ud v:nameU="TickIntervals" v:prompt="" v:val="VT0(0.25):1"/>
				<v:ud v:nameU="visVersion" v:prompt="" v:val="VT0(15):26"/>
				<v:ud v:nameU="TickIntervals" v:prompt="" v:val="VT0(0.06910083912037):1"/>
			</v:userDefs>
			<title>Slider.177</title>
			<g id="group178-255" transform="translate(0,-2.24882)" v:mID="178" v:groupContext="group">
				<title>Sheet.178</title>
				<g id="shape179-256" v:mID="179" v:groupContext="shape">
					<title>Sheet.179</title>
					<rect x="0" y="791.522" width="19.901" height="0.477625" class="st22"/>
				</g>
				<g id="shape180-258" v:mID="180" v:groupContext="shape" transform="translate(0.129357,-0.0358219)">
					<title>Sheet.180</title>
					<rect x="0" y="791.737" width="19.8015" height="0.262694" class="st23"/>
				</g>
			</g>
			<g id="group181-261" transform="translate(9.76886,2.91237)" v:mID="181" v:groupContext="group">
				<v:userDefs>
					<v:ud v:nameU="Pixel" v:prompt="" v:val="VT0(0.01):0"/>
					<v:ud v:nameU="TickLines" v:prompt="" v:val="VT0(0):26"/>
					<v:ud v:nameU="Disabled" v:prompt="" v:val="VT0(0):5"/>
				</v:userDefs>
				<title>Sheet.181</title>
				<g id="shape182-262" v:mID="182" v:groupContext="shape">
					<title>Sheet.182</title>
					<v:userDefs>
						<v:ud v:nameU="isVertical" v:prompt="" v:val="VT0(0):26"/>
					</v:userDefs>
					<path d="M5.4 789.24 L5.4 781.2 L0 781.2 L0 789.24 L2.78 792 L5.4 789.24 Z" class="st24"/>
				</g>
				<g id="shape183-265" v:mID="183" v:groupContext="shape" transform="translate(0.675,-1.08)">
					<title>Sheet.183</title>
					<v:userDefs>
						<v:ud v:nameU="isVertical" v:prompt="" v:val="VT0(0):26"/>
					</v:userDefs>
					<path d="M4.05 789.79 L4.05 783.36 L0 783.36 L0 789.79 L2.09 792 L4.05 789.79 Z" class="st25"/>
				</g>
			</g>
			<g id="shape184-268" v:mID="184" v:groupContext="shape" transform="translate(0,-4.7265)">
				<title>Sheet.184</title>
				<v:userDefs>
					<v:ud v:nameU="Ticks" v:prompt="" v:val="VT0(5):26"/>
					<v:ud v:nameU="TickIntervals" v:prompt="" v:val="VT0(0.25):1"/>
					<v:ud v:nameU="TickIntervals" v:prompt="" v:val="VT0(0.06910083912037):1"/>
				</v:userDefs>
				<path d="M0 792 L0 791.75" class="st26"/>
				<path d="M4.98 792 L4.98 791.75" class="st26"/>
				<path d="M9.95 792 L9.95 791.75" class="st26"/>
				<path d="M14.93 792 L14.93 791.75" class="st26"/>
				<path d="M19.9 792 L19.9 791.75" class="st26"/>
			</g>
			<g id="shape185-275" v:mID="185" v:groupContext="shape">
				<title>Sheet.185</title>
				<v:userDefs>
					<v:ud v:nameU="Ticks" v:prompt="" v:val="VT0(5):26"/>
					<v:ud v:nameU="TickIntervals" v:prompt="" v:val="VT0(0.25):1"/>
					<v:ud v:nameU="TickIntervals" v:prompt="" v:val="VT0(0.06910083912037):1"/>
				</v:userDefs>
				<path d="M0 792 L0 791.75" class="st26"/>
				<path d="M4.98 792 L4.98 791.75" class="st26"/>
				<path d="M9.95 792 L9.95 791.75" class="st26"/>
				<path d="M14.93 792 L14.93 791.75" class="st26"/>
				<path d="M19.9 792 L19.9 791.75" class="st26"/>
			</g>
		</g>
		<g id="group186-282" transform="translate(77.4972,-151.488)" v:mID="186" v:groupContext="group" v:layerMember="1">
			<v:userDefs>
				<v:ud v:nameU="visVersion" v:prompt="" v:val="VT0(15):26"/>
				<v:ud v:nameU="ConnGap" v:prompt="" v:val="VT0(0.083333333333333):0"/>
				<v:ud v:nameU="msvDisableCustomConnectionPoints" v:prompt="" v:val="VT0(1):5"/>
			</v:userDefs>
			<title>Analyze</title>
			<g id="shape187-283" v:mID="187" v:groupContext="shape" v:layerMember="1" transform="translate(0,-4.10889)">
				<title>Sheet.187</title>
				<v:userDefs>
					<v:ud v:nameU="msvDisableCustomConnectionPoints" v:prompt="" v:val="VT0(1):5"/>
				</v:userDefs>
				<path d="M6.38 784.67 L4.79 783.04 L0 783.04 L0 791.57 L3.67 791.57 L4.17 792 L7.02 792 L7.02 788.59 L6.38 788.25
							 L6.38 784.67 Z" class="st28"/>
			</g>
			<g id="shape188-285" v:mID="188" v:groupContext="shape" v:layerMember="1" transform="translate(1.18594,-5.86799)">
				<title>Sheet.188</title>
				<v:userDefs>
					<v:ud v:nameU="SurroundingRegionColor" v:prompt="" v:val="VT0(1):26"/>
					<v:ud v:nameU="msvDisableCustomConnectionPoints" v:prompt="" v:val="VT0(1):5"/>
				</v:userDefs>
				<path d="M3.56 784.86 L5.1 786.43 L3.56 786.43 L3.56 784.86 ZM0 786.53 L1.58 786.53 L1.58 786.35 L0 786.35 L-0 786.53
							 ZM0 787.55 L1.58 787.55 L1.58 787.37 L0 787.37 L-0 787.55 ZM0 788.57 L4.01 788.57 L4.01 788.39 L0 788.39
							 L-0 788.57 ZM0 789.59 L4.01 789.59 L4.01 789.41 L0 789.41 L-0 789.59 ZM0 790.6 L4.01 790.6 L4.01 790.43
							 L0 790.43 L-0 790.6 ZM2.42 791.61 L2.6 791.61 L2.6 791.43 L2.42 791.43 L2.42 791.61 L2.42 791.61 ZM3.06
							 792 L4.69 792 L4.69 791.71 L3.06 791.71 L3.06 792 Z" class="st29"/>
			</g>
			<g id="shape189-288" v:mID="189" v:groupContext="shape" v:layerMember="1" transform="translate(3.58889,-1.13687E-13)">
				<title>Sheet.189</title>
				<v:userDefs>
					<v:ud v:nameU="msvDisableCustomConnectionPoints" v:prompt="" v:val="VT0(1):5"/>
				</v:userDefs>
				<path d="M3.23 789.28 L5.14 787.37 C5.19 787.17 5.21 786.96 5.21 786.75 C5.21 785.3 4.04 784.13 2.61 784.13 C1.17
							 784.13 0 785.3 0 786.75 C0 788.19 1.17 789.36 2.61 789.36 C2.82 789.36 3.03 789.33 3.23 789.28 ZM4.03
							 788.18 C3.25 788.97 1.97 788.97 1.18 788.18 C0.39 787.39 0.39 786.1 1.18 785.31 C1.97 784.52 3.25 784.52
							 4.03 785.31 C4.82 786.1 4.82 787.39 4.03 788.18 ZM5.14 787.37 L3.22 789.29 C3.5 789.58 3.62 789.8 4.09
							 789.32 C4.8 788.6 4.28 789.21 4.54 789.48 C6.73 791.71 7.15 792.37 7.71 791.81 L7.71 791.81 C7.71 791.81
							 7.71 791.81 7.71 791.81 C7.71 791.81 7.71 791.81 7.71 791.81 C8.17 791.35 7.43 790.8 5.34 788.69 C5.07
							 788.42 4.46 788.95 5.17 788.24 C5.65 787.76 5.43 787.64 5.15 787.36 L5.14 787.37 Z" class="st28"/>
			</g>
		</g>
		<g id="group190-290" transform="translate(231.696,-152.29)" v:mID="190" v:groupContext="group">
			<v:userDefs>
				<v:ud v:nameU="msvDisableCustomConnectionPoints" v:prompt="" v:val="VT0(1):5"/>
			</v:userDefs>
			<title>Live Streaming Menu</title>
			<g id="group191-291" v:mID="191" v:groupContext="group">
				<v:userDefs>
					<v:ud v:nameU="msvDisableCustomConnectionPoints" v:prompt="" v:val="VT0(1):5"/>
				</v:userDefs>
				<title>Sheet.191</title>
				<g id="shape192-292" v:mID="192" v:groupContext="shape" transform="translate(9.2874,-1.506)">
					<title>Sheet.192</title>
					<v:userDefs>
						<v:ud v:nameU="msvDisableCustomConnectionPoints" v:prompt="" v:val="VT0(1):5"/>
					</v:userDefs>
					<path d="M5.48 791.93 L0.36 789.55 a0.594584 0.594584 0 0 1 -0.363545 -0.607325 L0 788.12 a0.598831 0.598831
								 0 0 1 0.363545 -0.607325 L5.48 785.14 C5.75 785.07 6 785.36 6 785.74 L6 791.32 C6 791.71 5.75 792
								 5.48 791.93 Z" class="st30"/>
				</g>
				<g id="shape193-296" v:mID="193" v:groupContext="shape">
					<title>Sheet.193</title>
					<v:userDefs>
						<v:ud v:nameU="msvDisableCustomConnectionPoints" v:prompt="" v:val="VT0(1):5"/>
					</v:userDefs>
					<path d="M0 791.4 a0.600543 0.600543 -180 0 0 0.600529 0.600529 L10.87 792 a0.600543 0.600543 -180 0 0 0.600529
								 -0.600529 L11.47 782.58 a0.600543 0.600543 -180 0 0 -0.600529 -0.600529 L0.6 781.98 a0.600543 0.600543
								 -180 0 0 -0.600529 0.600529 L0 791.4 Z" class="st31"/>
				</g>
				<g id="shape194-300" v:mID="194" v:groupContext="shape" transform="translate(3.01284,-3.21332)">
					<title>Sheet.194</title>
					<v:userDefs>
						<v:ud v:nameU="msvDisableCustomConnectionPoints" v:prompt="" v:val="VT0(1):5"/>
					</v:userDefs>
					<path d="M1.36 791.37 A1.91711 1.91711 0 0 1 0.9 790.19 A1.63171 1.63171 0 0 1 1.34 789.07 a0.449335 0.449335
								 -180 0 0 -0.611572 -0.65744 A2.54822 2.54822 -180 0 0 0 790.18 A2.81663 2.81663 -180 0 0 0.71 792
								 a0.449335 0.449335 -180 0 0 0.649795 -0.620066 L1.36 791.37 Z" class="st32"/>
				</g>
				<g id="shape195-302" v:mID="195" v:groupContext="shape" transform="translate(1.24863,-2.34521)">
					<title>Sheet.195</title>
					<v:userDefs>
						<v:ud v:nameU="msvDisableCustomConnectionPoints" v:prompt="" v:val="VT0(1):5"/>
					</v:userDefs>
					<path d="M1.24 792 a0.448486 0.448486 0 0 1 -0.339762 -0.152893 A4.09158 4.09158 0 0 1 0 789.34 A4.36594 4.36594
								 0 0 1 0.9 786.85 a0.449335 0.449335 0 0 1 0.69906 0.564005 A3.48936 3.48936 -180 0 0 0.9 789.34
								 A3.16828 3.16828 -180 0 0 1.58 791.26 a0.449335 0.449335 0 0 1 -0.339762 0.744928 L1.24 792 Z"
							class="st32"/>
				</g>
				<g id="shape196-304" v:mID="196" v:groupContext="shape" transform="translate(6.74202,-3.20907)">
					<title>Sheet.196</title>
					<v:userDefs>
						<v:ud v:nameU="msvDisableCustomConnectionPoints" v:prompt="" v:val="VT0(1):5"/>
					</v:userDefs>
					<path d="M0.75 788.42 a0.445938 0.445938 -180 0 0 -0.629409 0.0237833 a0.451034 0.451034 -180 0 0 0.0178375 0.633656
								 A1.62916 1.62916 0 0 1 0.58 790.19 A1.9256 1.9256 0 0 1 0.12 791.38 a0.449335 0.449335 -180 0 0
								 0.649795 0.620066 A2.81663 2.81663 -180 0 0 1.48 790.18 A2.54822 2.54822 -180 0 0 0.75 788.42 Z"
							class="st32"/>
				</g>
				<g id="shape197-306" v:mID="197" v:groupContext="shape" transform="translate(8.33106,-2.33926)">
					<title>Sheet.197</title>
					<v:userDefs>
						<v:ud v:nameU="msvDisableCustomConnectionPoints" v:prompt="" v:val="VT0(1):5"/>
					</v:userDefs>
					<path d="M0.41 792 a0.449335 0.449335 0 0 1 -0.339762 -0.744928 A3.22774 3.22774 -180 0 0 0.75 789.34 A3.49615
								 3.49615 -180 0 0 0.05 787.41 a0.449335 0.449335 0 0 1 0.69906 -0.564005 A4.36764 4.36764 0 0 1 1.65
								 789.34 A4.09413 4.09413 0 0 1 0.74 791.85 a0.448486 0.448486 0 0 1 -0.332117 0.152893 Z"
							class="st32"/>
				</g>
				<g id="shape198-308" v:mID="198" v:groupContext="shape" transform="translate(4.84246,-4.2105)">
					<title>Sheet.198</title>
					<v:userDefs>
						<v:ud v:nameU="msvDisableCustomConnectionPoints" v:prompt="" v:val="VT0(1):5"/>
					</v:userDefs>
					<ellipse cx="0.78485" cy="791.215" rx="0.78485" ry="0.78485" class="st32"/>
				</g>
			</g>
		</g>
		<g id="shape200-310" v:mID="200" v:groupContext="shape" transform="translate(49.5,-650.339)">
			<title>Art caption, FL.200</title>
			<desc>Onboard: </desc>
			<v:textBlock v:margins="rect(4,4,4,4)" v:verticalAlign="0"/>
			<v:textRect cx="90" cy="782.361" width="180.01" height="19.2771"/>
			<rect x="0" y="772.723" width="180" height="19.2771" class="st4"/>
			<text x="4" y="784.82" class="st5" v:langID="1033"><v:paragraph/><v:tabList/>Onboard: </text>		</g>
		<g id="shape202-313" v:mID="202" v:groupContext="shape" transform="translate(989.942,402.443) rotate(90)">
			<title>Arrow.202</title>
			<path d="M0 792 L11.58 792" class="st17"/>
		</g>
		<g id="shape203-318" v:mID="203" v:groupContext="shape" transform="translate(989.942,503.437) rotate(90)">
			<title>Arrow.203</title>
			<path d="M0 792 L7.42 792" class="st17"/>
		</g>
		<g id="shape205-323" v:mID="205" v:groupContext="shape" transform="translate(958.075,588.375) rotate(90)">
			<title>Arrow.205</title>
			<path d="M0 792 L29.84 792" class="st17"/>
		</g>
		<g id="shape206-328" v:mID="206" v:groupContext="shape" transform="translate(1024.38,588.375) rotate(90)">
			<title>Arrow.206</title>
			<path d="M0 792 L29.84 792" class="st17"/>
		</g>
		<g id="shape208-333" v:mID="208" v:groupContext="shape" transform="translate(49.5,-349.357)">
			<title>Art caption, FL.208</title>
			<desc>Set AI Insights: </desc>
			<v:textBlock v:margins="rect(4,4,4,4)" v:verticalAlign="0"/>
			<v:textRect cx="90" cy="782.361" width="180.01" height="19.2771"/>
			<rect x="0" y="772.723" width="180" height="19.2771" class="st4"/>
			<text x="4" y="784.82" class="st5" v:langID="1033"><v:paragraph/><v:tabList/>Set AI Insights: </text>		</g>
		<g id="shape210-336" v:mID="210" v:groupContext="shape" transform="translate(49.5,-166.5)">
			<title>Art caption, FL.210</title>
			<desc>Use video analysis:</desc>
			<v:textBlock v:margins="rect(4,4,4,4)" v:verticalAlign="0"/>
			<v:textRect cx="90" cy="782.361" width="180.01" height="19.2771"/>
			<rect x="0" y="772.723" width="180" height="19.2771" class="st4"/>
			<text x="4" y="784.82" class="st5" v:langID="1033"><v:paragraph/><v:tabList/>Use video analysis:</text>		</g>
	</g>
</svg>
